<?xml version="1.0" encoding="utf-8"?>
<!-- Generator: Adobe Illustrator 20.1.0, SVG Export Plug-In . SVG Version: 6.00 Build 0)  -->
<svg version="1.1" id="Слой_1" xmlns="http://www.w3.org/2000/svg" xmlns:xlink="http://www.w3.org/1999/xlink" x="0px" y="0px"
	 viewBox="0 0 149.7 40.3" style="enable-background:new 0 0 149.7 40.3;" xml:space="preserve">
<style type="text/css">
	.st0{fill:#F15456;}
	.st1{fill:#00AEBD;}
	.st2{fill:#0092A6;}
	.st3{fill:#FFFFFF;}
</style>
<polygon class="st0" points="107,21.1 147.4,21.1 147.4,2 103,2 107,6 "/>
<polygon class="st1" points="32.7,2 41.5,2 41.5,30.3 32.7,39.1 1.5,39.1 1.5,10.9 10.4,2 10.4,29.9 17.4,29.9 17.4,10.8 26.2,1.9 
	26.2,30 32.7,30 "/>
<polygon class="st1" points="69.6,2 69.6,10.9 53.7,10.9 53.7,16.1 69.6,16.1 69.6,25 53.7,25 53.7,30 68.6,30 59.5,39.1 44.7,39.1 
	44.7,10.9 53.7,1.9 "/>
<path class="st1" d="M81.8,2l-8.2,9v28.1l14.9,0l9.1-9.1V2H81.8z M88.5,30h-6.8v-5.4h6.8V30z M88.5,16.4h-6.8v-5.5h6.8V16.4z"/>
<polygon class="st2" points="97.6,30 88.5,30 88.5,39.1 "/>
<polygon class="st2" points="81.8,2 81.7,10.9 73.6,10.9 "/>
<polygon class="st2" points="44.7,10.9 53.7,10.9 53.7,1.9 "/>
<polygon class="st2" points="68.6,30 59.5,39.1 59.5,30 "/>
<polygon class="st2" points="1.5,10.9 10.4,10.9 10.4,2 "/>
<polygon class="st2" points="17.4,10.8 26.2,10.8 26.2,1.9 "/>
<polygon class="st2" points="32.7,30 32.7,39.1 41.5,30.2 "/>
<polygon id="_x32_" class="st3" points="116.9,7.8 121.8,7.8 121.8,11.9 117.9,11.8 117.9,14.2 121.8,14.2 121.8,15.3 116.8,15.3 
	116.8,10.8 120.6,10.8 120.6,8.9 116.9,8.9 "/>
<rect id="dot" x="123.2" y="14.2" class="st3" width="1.1" height="1"/>
<path id="_x30__1_" class="st3" d="M125.9,7.9v7.4h4.9V7.9H125.9z M129.7,14.3h-2.8V8.9h2.8V14.3z"/>
<polygon id="_x32__1_" class="st3" points="132.6,7.8 137.4,7.8 137.4,11.9 133.6,11.8 133.6,14.2 137.4,14.2 137.4,15.3 
	132.5,15.3 132.5,10.8 136.3,10.8 136.3,8.9 132.6,8.9 "/>
</svg>
